<svg id="Layer_1" data-name="Layer 1" xmlns="http://www.w3.org/2000/svg" viewBox="0 0 546.71 99.96"><defs><style>.cls-1{fill:#fff;}</style></defs><path class="cls-1" d="M566.45,80.19v39.29H33.74V80.19H566.45m7-7H26.74v53.29H573.45V73.19Z" transform="translate(-26.74 -26.52)"/><path class="cls-1" d="M83.12,114l3.73-19.68h6.81L89.94,114Zm4.65-24.83a3.68,3.68,0,0,1,3.79-3.7,3.06,3.06,0,0,1,3.28,3.16A3.63,3.63,0,0,1,91,92.35,3,3,0,0,1,87.77,89.21Z" transform="translate(-26.74 -26.52)"/><path class="cls-1" d="M506.12,114l3.73-19.68h6.82L512.94,114Zm4.65-24.83a3.68,3.68,0,0,1,3.79-3.7,3.06,3.06,0,0,1,3.29,3.16,3.64,3.64,0,0,1-3.9,3.68A3,3,0,0,1,510.77,89.21Z" transform="translate(-26.74 -26.52)"/><path class="cls-1" d="M301.79,93.82a4.25,4.25,0,0,0-4.33,3.51c4.67,0,6.31-.62,6.31-2C303.77,94.49,303.05,93.82,301.79,93.82Z" transform="translate(-26.74 -26.52)"/><path class="cls-1" d="M300.24,90.19h0m1.55,3.63a4.25,4.25,0,0,0-4.33,3.51h.43c4.34,0,5.88-.66,5.88-2,0-.8-.72-1.47-2-1.47Z" transform="translate(-26.74 -26.52)"/><path class="cls-1" d="M148.33,123V76.69H451.86V123ZM302.7,84.77A16.72,16.72,0,0,0,286,101.83c0,8,5.2,13,13.56,13a23.69,23.69,0,0,0,10.21-2.1l2.13-1-.67-8.88a9.55,9.55,0,0,0,3.21-7.53C314.41,89.11,309.59,84.77,302.7,84.77Z" transform="translate(-26.74 -26.52)"/><path class="cls-1" d="M448.36,80.19v39.29H151.83V80.19H448.36M299.54,118.38a27.33,27.33,0,0,0,11.76-2.46l4.25-2.09-.36-4.72-.37-5a13.58,13.58,0,0,0,3.1-8.84c0-8.13-6.42-14-15.22-14a20.19,20.19,0,0,0-20.22,20.56c0,10,6.7,16.55,17.06,16.55M455.36,73.19H144.83v53.29H455.36V73.19ZM299.54,111.38c-6.51,0-10.06-3.4-10.06-9.55,0-6.75,4.86-13.56,13.22-13.56,4.61,0,8.21,2.53,8.22,7.06,0,5.24-4.52,7.57-12.78,7.57l-1.4,0a2.8,2.8,0,0,0,.81,1.45,5.92,5.92,0,0,0,3.94,1.14,14.48,14.48,0,0,0,6.31-1.35l.41,5.52a20.44,20.44,0,0,1-8.67,1.74Z" transform="translate(-26.74 -26.52)"/><path class="cls-1" d="M477.45,69.49a18,18,0,0,1-6,1.07,9.17,9.17,0,0,1-10-9.84c0-5.83,4-10.1,10.57-10.1a12.3,12.3,0,0,1,4.89.9l-.63,2.06a9.83,9.83,0,0,0-4.31-.84c-4.75,0-7.86,2.95-7.86,7.85s3,7.89,7.55,7.89A8.12,8.12,0,0,0,475,68V62.12H471v-2h6.44Z" transform="translate(-26.74 -26.52)"/><path class="cls-1" d="M485,53h-6V50.81h14.48V53h-6V70.37H485Z" transform="translate(-26.74 -26.52)"/><path class="cls-1" d="M437.68,46.07V26.52h6.18l3.11,6A59.35,59.35,0,0,1,450,39.37h.08a73.88,73.88,0,0,1-.39-8.23V26.52h4.79V46.07H449l-3.31-6.5a75.62,75.62,0,0,1-3.29-7.06h-.11c.13,2.64.2,5.58.2,8.76v4.8Z" transform="translate(-26.74 -26.52)"/><path class="cls-1" d="M462.09,46.1l1.4,2-16.4,21.4-16.38-21.4,1.4-2,15,19.54Z" transform="translate(-26.74 -26.52)"/></svg>