<svg id="Layer_1" data-name="Layer 1" xmlns="http://www.w3.org/2000/svg" viewBox="0 0 546.71 100.16"><defs><style>.cls-1{fill:#fff;}</style></defs><path class="cls-1" d="M566.45,80.19v39.29H33.74V80.19H566.45m7-7H26.74v53.29H573.45V73.19Z" transform="translate(-26.74 -26.32)"/><path class="cls-1" d="M83.12,114l3.73-19.68h6.81L89.94,114Zm4.65-24.83a3.68,3.68,0,0,1,3.79-3.7,3.06,3.06,0,0,1,3.28,3.16A3.63,3.63,0,0,1,91,92.35,3,3,0,0,1,87.77,89.21Z" transform="translate(-26.74 -26.32)"/><path class="cls-1" d="M506.12,114l3.73-19.68h6.82L512.94,114Zm4.65-24.83a3.68,3.68,0,0,1,3.79-3.7,3.06,3.06,0,0,1,3.29,3.16,3.64,3.64,0,0,1-3.9,3.68A3,3,0,0,1,510.77,89.21Z" transform="translate(-26.74 -26.32)"/><path class="cls-1" d="M301.79,93.82a4.25,4.25,0,0,0-4.33,3.51c4.67,0,6.31-.62,6.31-2C303.77,94.49,303.05,93.82,301.79,93.82Z" transform="translate(-26.74 -26.32)"/><path class="cls-1" d="M300.24,90.19h0m1.55,3.63a4.25,4.25,0,0,0-4.33,3.51h.43c4.34,0,5.88-.66,5.88-2,0-.8-.72-1.47-2-1.47Z" transform="translate(-26.74 -26.32)"/><path class="cls-1" d="M148.33,123V76.69H451.86V123ZM302.7,84.77A16.72,16.72,0,0,0,286,101.83c0,8,5.2,13,13.56,13a23.69,23.69,0,0,0,10.21-2.1l2.13-1-.67-8.88a9.55,9.55,0,0,0,3.21-7.53C314.41,89.11,309.59,84.77,302.7,84.77Z" transform="translate(-26.74 -26.32)"/><path class="cls-1" d="M448.36,80.19v39.29H151.83V80.19H448.36M299.54,118.38a27.33,27.33,0,0,0,11.76-2.46l4.25-2.09-.36-4.72-.37-5a13.58,13.58,0,0,0,3.1-8.84c0-8.13-6.42-14-15.22-14a20.19,20.19,0,0,0-20.22,20.56c0,10,6.7,16.55,17.06,16.55M455.36,73.19H144.83v53.29H455.36V73.19ZM299.54,111.38c-6.51,0-10.06-3.4-10.06-9.55,0-6.75,4.86-13.56,13.22-13.56,4.61,0,8.21,2.53,8.22,7.06,0,5.24-4.52,7.57-12.78,7.57l-1.4,0a2.8,2.8,0,0,0,.81,1.45,5.92,5.92,0,0,0,3.94,1.14,14.48,14.48,0,0,0,6.31-1.35l.41,5.52a20.44,20.44,0,0,1-8.67,1.74Z" transform="translate(-26.74 -26.32)"/><path class="cls-1" d="M112.16,64.22l-2,6.15h-2.62l6.65-19.56h3l6.68,19.56h-2.7l-2.1-6.15Zm6.42-2-1.93-5.63c-.43-1.28-.72-2.44-1-3.57h-.07c-.28,1.15-.59,2.34-1,3.54l-1.93,5.66Z" transform="translate(-26.74 -26.32)"/><path class="cls-1" d="M141,69.49a18,18,0,0,1-6,1.07,9.17,9.17,0,0,1-10-9.84c0-5.83,4-10.1,10.57-10.1a12.3,12.3,0,0,1,4.89.9l-.63,2.06a9.88,9.88,0,0,0-4.32-.84c-4.74,0-7.85,2.95-7.85,7.85s3,7.89,7.54,7.89a8.22,8.22,0,0,0,3.36-.53V62.12h-4v-2H141Z" transform="translate(-26.74 -26.32)"/><path class="cls-1" d="M473.45,69.49a18,18,0,0,1-6,1.07,9.17,9.17,0,0,1-10-9.84c0-5.83,4-10.1,10.57-10.1a12.3,12.3,0,0,1,4.89.9l-.63,2.06a9.83,9.83,0,0,0-4.31-.84c-4.75,0-7.86,2.95-7.86,7.85s3,7.89,7.55,7.89A8.12,8.12,0,0,0,471,68V62.12H467v-2h6.44Z" transform="translate(-26.74 -26.32)"/><path class="cls-1" d="M481,53h-6V50.81h14.48V53h-6V70.37H481Z" transform="translate(-26.74 -26.32)"/><path class="cls-1" d="M359.62,45.16a23.53,23.53,0,0,1-6.75,1.11c-3.84,0-6.47-1-8.23-2.64a9.45,9.45,0,0,1-2.78-7.06c0-6.79,5.08-10.25,11.42-10.25a14.39,14.39,0,0,1,5.67,1l-1.05,4.19a11.08,11.08,0,0,0-4.65-.83c-3.23,0-5.89,1.69-5.89,5.66,0,3.64,2.36,5.76,5.56,5.76a5.6,5.6,0,0,0,1.65-.17V38.53H352V34.46h7.67Z" transform="translate(-26.74 -26.32)"/><path class="cls-1" d="M366.68,30.91h-5V26.52H377v4.39h-5.08V46.07h-5.24Z" transform="translate(-26.74 -26.32)"/><path class="cls-1" d="M374.24,47.1l1.39,2-16.39,21.4-16.38-21.4,1.39-2,15,19.54Z" transform="translate(-26.74 -26.32)"/></svg>