<?xml version="1.0" encoding="utf-8"?>
<!-- Generator: Adobe Illustrator 25.0.1, SVG Export Plug-In . SVG Version: 6.00 Build 0)  -->
<svg version="1.1" id="Layer_1" xmlns="http://www.w3.org/2000/svg" xmlns:xlink="http://www.w3.org/1999/xlink" x="0px" y="0px"
	 viewBox="0 0 600 150" style="enable-background:new 0 0 600 150;" xml:space="preserve">
<style type="text/css">
	.st0{fill:#FFFFFF;}
</style>
<g>
	<path class="st0" d="M566.45,80.19v39.29H33.74V80.19H566.45 M573.45,73.19H26.74v53.29h546.71V73.19L573.45,73.19z"/>
</g>
<g>
	<g>
		<path class="st0" d="M83.12,114.04l3.73-19.68h6.82l-3.73,19.68H83.12z M87.77,89.21c0-2.23,1.78-3.7,3.79-3.7
			c1.91,0,3.29,1.22,3.29,3.16c0,2.37-1.83,3.68-3.9,3.68C89.13,92.35,87.77,91.15,87.77,89.21z"/>
	</g>
</g>
<g>
	<g>
		<path class="st0" d="M506.12,114.04l3.73-19.68h6.82l-3.73,19.68H506.12z M510.77,89.21c0-2.23,1.78-3.7,3.79-3.7
			c1.91,0,3.29,1.22,3.29,3.16c0,2.37-1.83,3.68-3.9,3.68C512.13,92.35,510.77,91.15,510.77,89.21z"/>
	</g>
</g>
<g>
	<g>
		<path class="st0" d="M301.79,93.82c-2.77,0-4.11,2.07-4.33,3.51c4.67,0.04,6.31-0.62,6.31-2.04
			C303.77,94.49,303.05,93.82,301.79,93.82z"/>
		<path class="st0" d="M300.24,90.19C300.24,90.19,300.24,90.19,300.24,90.19 M301.79,93.82c-2.77,0-4.11,2.07-4.33,3.51
			c0.15,0,0.29,0,0.43,0c4.34,0,5.88-0.67,5.88-2.04C303.77,94.49,303.05,93.82,301.79,93.82L301.79,93.82z"/>
	</g>
	<g>
		<path class="st0" d="M148.33,122.98V76.69h303.53v46.29H148.33z M302.7,84.77c-8.22,0-16.72,6.38-16.72,17.06
			c0,8.05,5.19,13.05,13.56,13.05c2.71,0,6.67-0.36,10.21-2.1l2.13-1.04l-0.67-8.88c2.48-2.15,3.21-4.97,3.21-7.53
			C314.41,89.11,309.59,84.77,302.7,84.77z"/>
		<path class="st0" d="M448.36,80.19v39.29H151.83V80.19H448.36 M299.54,118.38c3.08,0,7.61-0.43,11.76-2.46l4.25-2.09l-0.36-4.73
			l-0.37-4.96c2.63-3.07,3.11-6.66,3.11-8.84c-0.02-8.13-6.42-14.04-15.22-14.04c-9.94,0-20.22,7.69-20.22,20.56
			C282.48,111.88,289.18,118.38,299.54,118.38 M455.36,73.19H144.83v53.29h310.53V73.19L455.36,73.19z M299.54,111.38
			c-6.51,0-10.06-3.4-10.06-9.55c0-6.75,4.86-13.56,13.22-13.56c4.61,0,8.21,2.53,8.22,7.05c0,5.24-4.53,7.57-12.78,7.57
			c-0.46,0-0.92-0.01-1.4-0.02c0.1,0.5,0.37,1.05,0.81,1.45c0.84,0.74,2.19,1.15,3.94,1.15c2.27,0,4.39-0.44,6.31-1.35l0.42,5.51
			C305.25,111.09,301.79,111.38,299.54,111.38L299.54,111.38z"/>
	</g>
</g>
<g>
	<g>
		<path class="st0" d="M111.84,64.22l-2.02,6.14h-2.62l6.65-19.55h3.04l6.68,19.55h-2.7l-2.09-6.14H111.84z M118.26,62.25
			l-1.94-5.63c-0.42-1.28-0.72-2.44-1.01-3.57h-0.07c-0.28,1.14-0.59,2.34-0.97,3.53l-1.93,5.66H118.26z"/>
		<path class="st0" d="M141.32,69.49c-1.13,0.43-3.38,1.07-6.01,1.07c-2.96,0-5.41-0.75-7.31-2.58c-1.68-1.62-2.72-4.22-2.72-7.26
			c0.01-5.83,4.02-10.1,10.57-10.1c2.26,0,4.05,0.5,4.89,0.9l-0.63,2.06c-1.04-0.47-2.35-0.84-4.32-0.84
			c-4.74,0-7.85,2.95-7.85,7.85c0,4.95,2.97,7.89,7.55,7.89c1.65,0,2.77-0.23,3.35-0.53v-5.82h-3.96V60.1h6.44V69.49z"/>
	</g>
</g>
<g>
	<g>
		<path class="st0" d="M73.7,46.07V26.52h6.18l3.1,6c1.06,1.94,2.2,4.56,3.07,6.85h0.08c-0.29-2.57-0.39-5.31-0.39-8.23v-4.62h4.79
			v19.55H85l-3.31-6.5c-1.09-2.07-2.36-4.7-3.29-7.06h-0.1c0.13,2.64,0.2,5.58,0.2,8.76v4.8H73.7z"/>
	</g>
</g>
<g>
	<path class="st0" d="M98.11,46.1l1.39,2.01l-16.39,21.4l-16.38-21.4l1.39-2.01l14.99,19.54L98.11,46.1z"/>
</g>
</svg>
